<?xml version="1.0" standalone="no"?>
<!DOCTYPE svg PUBLIC "-//W3C//DTD SVG 20010904//EN"
 "http://www.w3.org/TR/2001/REC-SVG-20010904/DTD/svg10.dtd">
<svg version="1.0" xmlns="http://www.w3.org/2000/svg"
 width="313.000000pt" height="237.000000pt" viewBox="0 0 313.000000 237.000000"
 preserveAspectRatio="xMidYMid meet">

<g transform="translate(0.000000,237.000000) scale(0.100000,-0.100000)"
fill="#000000" stroke="none">
<path d="M1465 2338 c-23 -64 -35 -103 -35 -114 0 -7 19 -22 43 -32 60 -28
118 -82 149 -139 48 -87 58 -149 58 -353 0 -279 20 -380 90 -469 21 -27 59
-61 84 -77 25 -16 45 -31 46 -35 0 -3 -26 -23 -57 -46 -65 -46 -118 -123 -141
-206 -9 -35 -16 -137 -21 -307 -7 -223 -10 -262 -28 -307 -37 -93 -96 -159
-180 -202 -24 -12 -43 -24 -43 -26 0 -3 67 -5 148 -5 l149 0 42 42 c23 24 55
66 71 93 54 96 62 139 70 415 8 273 15 310 66 377 31 41 72 63 144 78 l55 11
0 84 0 85 -45 6 c-95 14 -154 58 -190 141 -22 49 -24 73 -30 313 -7 224 -10
269 -29 326 -44 139 -134 239 -276 308 -95 46 -134 57 -140 39z"/>
<path d="M2993 2331 c-141 -51 -258 -149 -310 -261 -53 -113 -63 -174 -63
-398 0 -256 -17 -339 -82 -399 -34 -32 -107 -63 -150 -63 l-38 0 0 -89 0 -89
53 -7 c67 -9 131 -46 164 -96 42 -64 53 -133 53 -359 0 -166 4 -218 19 -275
25 -95 64 -171 119 -227 l46 -48 156 0 155 0 -55 31 c-60 33 -121 87 -150 134
-46 76 -53 119 -60 380 -6 216 -10 260 -29 322 -24 79 -79 159 -136 196 -19
12 -35 27 -35 32 0 6 18 25 40 41 87 67 135 160 151 289 4 39 8 153 9 255 0
203 10 266 58 353 31 57 89 111 150 139 26 12 42 25 41 36 -1 27 -34 116 -45
119 -5 1 -32 -6 -61 -16z"/>
<path d="M22 1268 l3 -913 115 0 115 0 3 368 2 367 218 0 217 0 66 -123 c37
-67 124 -230 195 -362 70 -132 133 -243 138 -247 11 -8 256 -11 256 -4 0 2
-54 102 -121 223 -67 120 -134 242 -150 271 -62 112 -88 159 -123 220 -20 35
-36 68 -36 72 0 5 10 12 23 16 45 14 148 87 194 138 53 58 97 139 112 209 15
63 15 211 1 277 -36 167 -156 297 -325 353 -123 41 -198 47 -558 47 l-347 0 2
-912z m724 707 c60 -8 154 -57 196 -101 59 -62 80 -123 82 -234 1 -83 -2 -102
-25 -150 -42 -90 -118 -154 -219 -184 -42 -13 -103 -16 -287 -16 l-233 0 0
344 0 345 23 3 c36 5 419 0 463 -7z"/>
</g>
</svg>
