<?xml version="1.0" standalone="no"?>
<!DOCTYPE svg PUBLIC "-//W3C//DTD SVG 20010904//EN"
 "http://www.w3.org/TR/2001/REC-SVG-20010904/DTD/svg10.dtd">
<svg version="1.0" xmlns="http://www.w3.org/2000/svg"
 width="834.000000pt" height="834.000000pt" viewBox="0 0 834.000000 834.000000"
 preserveAspectRatio="xMidYMid meet">
<metadata>
Created by potrace 1.11, written by Peter Selinger 2001-2013
</metadata>
<g transform="translate(0.000000,834.000000) scale(0.100000,-0.100000)"
fill="#000000" stroke="none">
<path d="M3917 7257 c-15 -12 -89 -221 -102 -287 -8 -45 10 -62 123 -121 174
-91 318 -235 404 -406 43 -85 81 -186 93 -248 30 -155 36 -250 40 -625 2 -179
4 -325 5 -325 1 0 3 -43 5 -95 3 -97 14 -246 19 -277 2 -10 7 -43 11 -73 37
-281 157 -505 356 -660 24 -19 46 -38 47 -42 2 -4 9 -8 15 -8 7 0 25 -11 41
-25 16 -14 32 -25 35 -25 3 -1 17 -10 30 -20 30 -25 28 -28 -104 -130 -162
-126 -248 -227 -328 -385 -68 -137 -84 -202 -101 -425 -11 -137 -23 -421 -31
-695 -7 -249 -21 -491 -31 -545 -3 -14 -7 -36 -9 -50 -2 -14 -11 -45 -20 -70
-9 -25 -19 -54 -22 -65 -4 -11 -18 -40 -31 -65 -14 -25 -30 -55 -36 -67 -6
-13 -14 -23 -18 -23 -5 0 -8 -5 -8 -10 0 -17 -58 -92 -122 -157 -67 -69 -170
-144 -263 -192 -33 -17 -71 -39 -84 -50 l-24 -19 45 -3 c26 -2 205 -4 400 -4
l353 0 77 80 c42 44 86 91 97 105 11 14 25 30 31 37 30 36 122 187 149 246 96
206 108 311 136 1162 6 174 13 321 20 385 3 25 8 68 10 96 11 113 63 261 118
331 16 21 119 125 139 139 14 11 103 53 123 58 6 2 17 6 25 9 18 7 119 32 175
43 22 4 43 8 48 9 4 2 15 3 25 4 16 1 17 17 16 224 -1 122 -2 225 -3 228 0 3
-7 6 -13 6 -46 3 -163 19 -163 23 0 1 -9 3 -19 5 -167 31 -324 154 -403 315
-58 119 -62 132 -66 192 -1 21 -4 38 -7 38 -3 0 -6 8 -6 18 -1 9 -4 80 -8 157
-4 77 -9 210 -12 295 -2 85 -6 223 -9 305 -8 296 -25 556 -40 624 -11 48 -36
139 -44 156 -5 11 -15 36 -22 55 -26 73 -93 198 -147 275 -136 194 -322 343
-583 468 -210 100 -301 128 -332 104z"/>
<path d="M8095 7263 c-38 -9 -170 -54 -205 -69 -65 -29 -175 -87 -202 -105
-14 -11 -28 -19 -31 -19 -7 0 -111 -70 -117 -79 -3 -4 -21 -18 -40 -31 -58
-40 -212 -202 -263 -278 -91 -136 -179 -345 -212 -502 -30 -147 -33 -189 -40
-533 -3 -159 -7 -293 -11 -298 -3 -5 0 -9 6 -9 6 0 9 -4 6 -9 -4 -5 -8 -83
-11 -173 -3 -89 -7 -183 -10 -208 -10 -91 -15 -136 -19 -156 -3 -12 -7 -38
-10 -58 -10 -59 -54 -176 -85 -225 -101 -156 -314 -270 -512 -274 l-77 -2 0
-237 -1 -238 27 -1 c15 0 36 -2 47 -5 11 -2 34 -6 50 -8 17 -2 41 -7 55 -10
14 -3 38 -8 54 -12 16 -3 45 -13 65 -22 20 -9 39 -16 42 -16 13 -2 127 -77
155 -103 100 -92 169 -231 190 -378 1 -11 6 -40 9 -65 15 -95 18 -174 31 -825
3 -148 7 -286 9 -305 6 -63 16 -124 27 -165 5 -22 11 -47 13 -55 15 -80 67
-217 125 -331 54 -105 114 -188 219 -299 l90 -95 410 0 c226 -1 411 3 411 7 0
4 -5 8 -11 8 -19 0 -203 111 -281 171 -125 96 -224 205 -273 304 -11 22 -22
42 -25 45 -4 4 -44 117 -46 130 0 3 -3 19 -7 35 -15 62 -15 60 -33 250 -4 48
-8 132 -19 460 -16 483 -19 563 -30 665 -8 69 -33 193 -46 228 -6 15 -12 34
-14 43 -8 39 -79 178 -129 253 -68 102 -129 165 -231 241 -44 33 -80 67 -81
75 0 17 66 86 135 140 93 74 177 178 240 300 39 74 98 236 106 290 2 14 6 34
8 45 22 97 34 337 42 840 2 154 7 314 10 355 3 41 6 82 6 90 0 8 5 38 10 65 5
28 11 66 14 85 13 82 112 318 137 328 4 2 8 10 8 18 0 8 5 14 10 14 6 0 10 6
10 13 0 26 210 227 238 227 6 0 12 4 14 8 5 13 115 71 122 65 3 -4 6 -1 6 5 0
7 5 12 10 12 6 0 24 12 40 26 25 23 29 32 24 63 -10 69 -58 207 -91 264 -20
33 -33 39 -68 30z"/>
<path d="M56 6822 c-3 -2 1 -2165 7 -3926 3 -853 5 -930 20 -935 12 -5 553 -6
589 -2 6 1 9 38 8 86 -1 11 -1 25 -1 30 0 6 3 381 6 835 4 454 7 866 8 915 l2
90 578 1 577 1 34 -61 c18 -34 59 -110 91 -171 32 -60 64 -117 72 -127 8 -9
15 -22 17 -30 1 -7 11 -29 22 -48 12 -19 44 -78 71 -130 28 -52 62 -115 75
-140 31 -56 162 -299 218 -405 76 -144 85 -160 90 -165 3 -3 23 -41 46 -85 55
-107 114 -218 153 -285 17 -30 37 -66 44 -80 6 -14 14 -27 17 -30 3 -3 11 -16
17 -30 7 -14 24 -43 37 -65 14 -22 33 -55 42 -73 9 -17 24 -32 33 -33 9 0 36
-3 61 -5 67 -6 535 -11 570 -6 16 2 30 9 30 14 0 6 -57 114 -127 242 -69 127
-144 265 -166 306 -22 41 -43 80 -47 85 -4 6 -25 42 -46 80 -20 39 -45 84 -55
100 -10 17 -31 55 -47 85 -15 30 -49 91 -74 135 -25 44 -61 109 -80 145 -20
36 -44 81 -55 100 -23 40 -76 136 -110 198 -55 101 -75 135 -158 282 -133 234
-175 321 -165 340 4 8 35 26 67 39 71 29 187 98 270 163 34 26 65 48 67 48 11
0 157 139 206 196 49 58 133 191 175 280 89 186 112 318 109 629 -2 199 -6
260 -25 345 -6 25 -12 53 -14 63 -14 68 -77 215 -134 312 -188 322 -545 554
-971 631 -14 3 -32 7 -40 9 -8 2 -37 7 -65 10 -27 3 -66 8 -85 11 -49 7 -149
13 -325 20 -148 5 -1634 11 -1639 6z m970 -520 c3 5 13 7 22 4 10 -3 175 -8
367 -11 525 -9 583 -13 688 -47 57 -18 256 -114 267 -128 3 -3 25 -20 50 -37
87 -59 182 -174 232 -283 53 -112 69 -211 73 -442 4 -191 -6 -252 -60 -365
-59 -126 -167 -263 -270 -343 -94 -73 -278 -155 -394 -175 -88 -15 -163 -17
-717 -22 l-591 -5 0 916 c0 611 4 919 10 923 6 4 55 8 110 10 55 1 102 4 103
6 2 2 27 1 54 -3 28 -4 53 -3 56 2z"/>
</g>
</svg>
